<svg width="145.42001342773438px" height="124.439990234375px" xmlns="http://www.w3.org/2000/svg" viewBox="177.2899932861328 12.780004882812499 145.42001342773438 124.439990234375" style="background: rgba(0, 0, 0, 0) none repeat scroll 0% 0%;" preserveAspectRatio="xMidYMid"><defs><filter id="editing-hole" x="-100%" y="-100%" width="300%" height="300%"><feFlood flood-color="#000" result="black"></feFlood><feMorphology operator="dilate" radius="2" in="SourceGraphic" result="erode"></feMorphology><feGaussianBlur in="erode" stdDeviation="4" result="blur"></feGaussianBlur><feOffset in="blur" dx="2" dy="2" result="offset"></feOffset><feComposite operator="atop" in="offset" in2="black" result="merge"></feComposite><feComposite operator="in" in="merge" in2="SourceGraphic" result="inner-shadow"></feComposite></filter></defs><g filter="url(#editing-hole)"><g transform="translate(205.20117115974426, 97.30500030517578)"><path d="M2.30-9.47L2.30-9.47L2.30-9.47Q2.30-11.97 2.94-15.17L2.94-15.17L8.13-42.24L22.27-42.24L17.15-14.98L17.15-14.98Q16.58-11.97 16.58-9.76L16.58-9.76L16.58-9.76Q16.58-7.55 17.50-6.40L17.50-6.40L17.50-6.40Q18.43-5.25 20.16-5.25L20.16-5.25L20.16-5.25Q21.89-5.25 22.98-5.70L22.98-5.70L22.98-5.70Q24.06-6.14 24.96-7.23L24.96-7.23L24.96-7.23Q26.69-9.41 27.78-14.98L27.78-14.98L32.96-42.24L42.62-42.24L37.50-15.04L37.50-15.04Q35.71-5.95 30.78-2.30L30.78-2.30L30.78-2.30Q25.98 1.28 16.51 1.28L16.51 1.28L16.51 1.28Q9.41 1.28 5.63-1.79L5.63-1.79L5.63-1.79Q2.30-4.48 2.30-9.47ZM56.96 0L43.33 0L50.62-38.91L51.33-42.24L65.02-42.24L56.96 0ZM82.94-3.78L82.94-3.78L82.94-3.78Q81.22 1.28 74.56 1.28L74.56 1.28L74.56 1.28Q69.63 1.28 66.24-4.61L66.24-4.61L66.24-4.61Q62.78-10.50 62.14-20.10L62.14-20.10L62.14-20.10Q69.18-32.96 74.05-38.27L74.05-38.27L74.05-38.27Q78.72-43.33 83.58-43.33L83.58-43.33L83.58-43.33Q86.21-43.33 88.10-41.92L88.10-41.92L88.10-41.92Q89.98-40.51 90.43-38.27L90.43-38.27L90.43-38.27Q88.26-37.38 87.23-36.67L87.23-36.67L87.23-36.67Q84.67-34.75 81.22-30.46L81.22-30.46L75.39-23.49L75.39-23.49Q73.98-21.82 73.41-21.06L73.41-21.06L73.41-21.06Q74.37-15.68 77.25-10.37L77.25-10.37L77.25-10.37Q80-5.31 82.94-3.78Z" fill="#ccc"></path></g></g><style>text {
  font-size: 64px;
  font-family: Arial Black;
  dominant-baseline: central;
  text-anchor: middle;
}</style></svg>